<?xml version="1.0" standalone="no"?>
<!DOCTYPE svg PUBLIC "-//W3C//DTD SVG 20010904//EN"
 "http://www.w3.org/TR/2001/REC-SVG-20010904/DTD/svg10.dtd">
<svg version="1.0" xmlns="http://www.w3.org/2000/svg"
 width="256.000000pt" height="256.000000pt" viewBox="0 0 256.000000 256.000000"
 preserveAspectRatio="xMidYMid meet">
<metadata>
Created by potrace 1.14, written by Peter Selinger 2001-2017
</metadata>
<g transform="translate(0.000000,256.000000) scale(0.100000,-0.100000)"
fill="#000000" stroke="none">
<path d="M1430 2536 c0 -9 -4 -16 -10 -16 -5 0 -10 -9 -10 -21 0 -12 -4 -17
-11 -14 -6 4 -8 13 -5 21 6 16 -20 8 -48 -15 -11 -9 -16 -10 -12 -3 4 7 1 12
-8 12 -9 0 -16 -7 -16 -16 0 -11 -5 -14 -17 -10 -9 4 -32 1 -51 -5 -25 -8 -36
-8 -41 0 -5 7 -22 -4 -47 -30 -22 -23 -70 -55 -109 -74 -50 -23 -81 -46 -108
-79 -21 -25 -43 -46 -50 -46 -7 -1 -21 -13 -32 -27 -11 -14 -45 -51 -76 -82
-47 -47 -61 -69 -82 -131 -13 -41 -26 -86 -28 -100 -9 -64 -1 -233 14 -304 23
-108 23 -113 -11 -108 -35 5 -54 -16 -54 -60 1 -78 22 -221 36 -250 9 -17 16
-42 16 -55 0 -29 42 -73 69 -73 11 0 22 -8 25 -17 17 -59 28 -202 24 -313 -4
-107 -8 -133 -26 -161 -27 -45 -74 -79 -109 -79 -17 0 -58 -19 -98 -45 -39
-24 -87 -54 -108 -65 -47 -26 -46 -27 67 -113 87 -66 224 -142 330 -181 91
-34 109 -33 55 5 -108 76 -216 229 -194 277 5 12 13 22 18 22 4 0 6 -4 3 -9
-3 -5 1 -11 9 -15 10 -3 15 1 16 12 0 13 3 11 9 -6 5 -12 14 -22 20 -22 14 0
13 13 -2 29 -11 10 -10 12 2 9 11 -2 16 8 18 40 2 24 8 42 15 42 7 0 6 4 -3
11 -11 8 -12 12 -2 16 6 2 12 12 12 21 0 15 -2 15 -10 2 -9 -13 -10 -13 -10 1
0 8 5 20 12 27 6 6 11 27 10 46 -1 19 2 37 6 39 7 4 41 -27 43 -40 3 -19 18
-47 18 -35 1 19 38 -3 46 -28 5 -16 12 -19 28 -14 22 6 21 6 -1 -14 l-24 -21
37 -7 c22 -4 32 -10 25 -14 -8 -5 -7 -9 4 -13 9 -4 16 -13 16 -22 0 -8 6 -14
12 -13 7 2 13 -4 13 -12 0 -8 11 -25 25 -38 14 -13 19 -21 13 -17 -21 10 -15
-13 7 -28 11 -8 17 -17 12 -22 -4 -5 -2 -5 5 -1 12 7 67 -22 74 -39 2 -5 12
-8 22 -7 9 2 17 -1 17 -6 0 -5 10 -12 22 -15 22 -6 22 -6 3 -25 -16 -15 -23
-17 -35 -8 -13 9 -13 9 -2 -5 15 -20 6 -49 -16 -49 -12 0 -13 3 -4 12 15 15
16 28 2 28 -6 0 -9 -3 -8 -7 0 -5 -2 -16 -7 -26 -5 -11 -2 -24 9 -36 9 -10 16
-23 16 -29 0 -7 5 -12 10 -12 6 0 10 -5 10 -10 0 -6 -3 -9 -7 -9 -5 1 -15 1
-23 0 -12 -1 -12 -3 0 -15 19 -18 97 -29 105 -16 4 6 11 8 16 5 5 -4 9 -1 9 5
0 6 4 9 9 6 5 -4 11 -2 13 3 1 4 13 12 26 15 18 6 22 4 22 -14 0 -21 3 -22 48
-15 302 44 507 139 700 324 59 57 82 86 81 103 0 22 -1 22 -9 3 -8 -19 -9 -19
-9 3 -1 13 5 22 14 22 8 0 15 5 15 10 0 6 -9 10 -21 10 -15 0 -19 5 -14 19 3
10 -1 25 -9 33 -9 10 -11 20 -5 31 5 9 9 33 9 54 -1 21 2 53 6 72 6 32 6 33
-16 21 -16 -9 -19 -15 -11 -23 17 -17 13 -31 -4 -17 -20 16 -19 37 1 48 11 6
13 12 6 16 -6 3 -18 -4 -26 -16 -9 -12 -16 -17 -16 -11 0 7 4 14 10 18 5 3 6
13 3 22 -5 12 -3 14 8 8 11 -7 11 -5 -1 10 -9 11 -10 16 -2 11 8 -4 12 -1 12
10 0 12 6 15 24 12 42 -8 52 6 27 40 -13 19 -17 33 -11 37 18 11 11 23 -10 18
-24 -6 -25 -16 -5 -33 8 -7 15 -19 15 -26 0 -25 -29 -15 -45 16 -17 33 -20 54
-6 45 6 -3 6 6 1 25 -5 18 -5 30 1 30 5 0 9 5 9 11 0 5 -4 7 -10 4 -18 -11
-11 6 14 36 16 18 22 36 19 49 -7 27 -17 17 -18 -18 0 -21 -6 -28 -24 -30 -16
-3 -21 0 -16 8 4 7 1 16 -6 21 -11 7 -10 9 4 9 9 0 17 -5 17 -12 0 -6 2 -9 5
-7 2 3 2 15 -2 27 -5 19 -8 20 -21 10 -14 -12 -14 -11 -1 9 12 20 11 24 -6 38
-11 9 -14 13 -6 9 9 -4 12 -3 7 4 -3 6 -2 13 4 17 5 3 10 14 9 23 0 12 -4 9
-11 -8 -12 -27 -10 -29 -33 38 -4 12 -14 22 -22 22 -12 0 -11 3 3 17 16 16 15
18 -4 26 -11 5 -25 20 -31 33 -9 20 -7 27 10 43 l21 20 -22 -6 c-12 -3 -26
-15 -31 -27 -6 -15 -7 -11 -3 16 6 35 5 36 -20 34 -20 -3 -26 1 -26 15 0 11
-3 18 -7 18 -27 -4 -42 4 -47 26 -4 14 -13 25 -21 25 -18 0 -20 51 -3 83 6 12
12 31 14 42 1 11 7 38 12 60 20 74 14 211 -14 323 -9 37 -20 72 -25 78 -5 6
-7 13 -4 16 8 8 -53 138 -65 138 -5 0 -10 7 -10 16 0 9 -23 40 -51 69 -28 29
-59 66 -68 82 -10 15 -32 43 -49 60 -18 17 -32 36 -32 41 0 5 -15 17 -32 25
-29 14 -33 14 -36 2 -2 -8 -6 -15 -9 -15 -14 0 -63 36 -63 47 0 6 -4 15 -10
18 -5 3 -10 -1 -10 -9z m-445 -476 c3 -5 1 -10 -4 -10 -6 0 -11 5 -11 10 0 6
2 10 4 10 3 0 8 -4 11 -10z m309 3 c-6 -2 -9 -16 -6 -32 3 -20 9 -27 24 -26
11 1 23 7 27 14 4 7 12 11 17 10 22 -4 45 2 39 11 -3 5 6 8 22 5 53 -7 69 -18
64 -47 0 -5 3 -8 9 -8 5 0 6 -8 3 -17 -6 -16 -5 -17 12 -3 17 13 18 13 13 -1
-4 -11 -1 -16 10 -16 38 -1 61 -16 67 -44 4 -17 13 -29 22 -29 10 0 14 -6 10
-20 -3 -12 -1 -18 5 -14 6 4 8 -7 6 -27 -3 -29 0 -34 19 -33 17 0 20 -4 17
-25 -3 -14 -12 -41 -20 -59 -14 -30 -19 -33 -42 -27 -15 3 -37 8 -49 9 -13 1
-26 5 -29 9 -15 15 -135 -21 -156 -47 -14 -17 -20 -18 -27 -8 -7 11 -9 10 -14
-3 -4 -9 -3 -13 3 -10 6 3 10 1 10 -5 0 -6 -7 -13 -15 -16 -11 -5 -12 -11 -5
-24 21 -39 -1 -87 -34 -74 -15 6 -18 19 -20 105 -1 32 -20 55 -60 76 -39 21
-54 23 -146 22 -102 -1 -119 -3 -114 -10 2 -4 -3 -10 -12 -13 -13 -5 -15 -2
-11 14 3 12 0 20 -8 20 -14 0 -26 58 -13 66 4 3 4 13 -1 22 -10 20 -8 91 4
142 5 19 8 40 7 46 -1 7 6 11 15 10 12 -1 17 5 16 19 -1 11 0 14 3 8 3 -7 10
-13 15 -13 6 0 7 5 4 10 -10 16 21 12 35 -5 11 -13 16 -12 42 6 26 19 31 20
46 6 20 -18 43 -17 65 1 10 9 17 10 22 2 3 -6 10 -8 15 -5 5 3 10 -2 12 -11 2
-13 7 -12 26 6 12 12 20 25 17 29 -2 5 8 8 23 8 15 0 22 -2 16 -4z m331 -152
c3 -5 1 -12 -5 -16 -5 -3 -10 1 -10 9 0 18 6 21 15 7z m55 -215 c0 -3 -4 -8
-10 -11 -5 -3 -10 -1 -10 4 0 6 5 11 10 11 6 0 10 -2 10 -4z m-550 -186 c-18
-11 -22 -7 -14 14 5 13 10 14 18 6 8 -8 7 -13 -4 -20z m356 -27 c-3 -3 -13 0
-21 7 -13 10 -13 15 -3 21 13 8 35 -17 24 -28z m-616 -13 c0 -35 14 -45 60
-45 19 -1 50 -4 68 -9 22 -5 38 -4 47 4 12 10 15 10 15 1 0 -8 8 -10 22 -6 17
6 20 4 15 -10 -4 -9 -7 -21 -7 -26 0 -6 -4 -8 -9 -4 -5 3 -12 1 -16 -5 -9 -15
-35 -12 -35 4 0 9 -7 12 -20 9 -11 -3 -17 -9 -14 -14 3 -5 -4 -9 -15 -9 -27 0
-27 -14 1 -42 14 -14 23 -18 26 -10 2 7 11 12 20 12 10 0 34 16 56 35 21 19
41 35 45 35 4 0 6 -16 5 -35 -2 -19 1 -37 6 -40 16 -10 12 -21 -22 -59 -53
-56 -56 -62 -55 -89 2 -19 5 -23 14 -15 7 6 10 15 6 21 -3 6 -1 7 5 3 6 -3 15
1 20 10 9 16 11 15 21 -4 20 -37 -17 -91 -85 -125 -24 -12 -32 -25 -41 -64 -6
-26 -9 -60 -6 -75 4 -20 1 -28 -9 -28 -21 0 -46 22 -50 45 -2 12 -10 19 -21
17 -11 -2 -17 4 -17 15 0 10 -7 27 -15 37 -8 10 -12 23 -9 28 3 5 2 17 -2 26
-4 9 -8 22 -9 27 -2 6 -4 17 -6 25 -3 9 5 16 19 18 16 2 22 10 22 28 0 16 6
24 18 24 14 0 15 2 2 9 -19 13 -30 5 -30 -21 0 -12 -3 -19 -6 -16 -7 8 -12 36
-13 76 -1 17 -6 32 -12 32 -5 0 -7 -4 -4 -10 3 -5 4 -10 1 -10 -3 0 -12 13
-21 30 -19 37 -23 109 -6 120 9 5 10 10 2 14 -14 9 -15 46 -1 46 5 0 7 6 4 14
-3 8 0 17 5 21 6 3 9 11 6 16 -3 5 1 6 9 3 9 -4 16 -18 16 -34z m-186 -85 c-4
-17 -2 -25 6 -25 10 0 10 -3 0 -15 -27 -33 -34 -10 -14 53 7 23 14 12 8 -13z
m635 -19 c7 -8 9 -25 5 -40 -4 -17 -2 -26 5 -26 16 0 31 -42 20 -56 -18 -23
-99 -1 -99 27 0 4 11 20 24 34 16 18 23 34 20 51 -5 27 7 32 25 10z m326 -36
c16 -17 16 -20 3 -15 -9 4 -19 13 -22 21 -7 19 -2 18 19 -6z m-150 -40 c8 0
19 8 24 18 9 15 11 14 12 -8 1 -14 1 -35 1 -47 -1 -13 3 -23 8 -23 6 0 10 4
10 10 0 5 9 2 19 -7 11 -9 17 -21 14 -27 -4 -6 -8 -6 -11 2 -2 7 -12 12 -23
12 -14 0 -18 -6 -17 -24 1 -14 7 -22 13 -18 16 10 35 11 35 1 0 -5 6 -9 14 -9
8 0 18 -5 22 -12 4 -6 3 -9 -2 -5 -5 3 -9 -14 -9 -38 0 -24 3 -41 8 -38 4 2 7
-3 7 -12 0 -9 -4 -13 -10 -10 -5 3 -10 1 -10 -4 0 -14 13 -14 28 1 9 9 9 4 2
-22 -6 -19 -8 -42 -5 -51 4 -11 -2 -18 -16 -22 -13 -4 -18 -10 -13 -18 4 -8 3
-10 -5 -5 -6 4 -9 11 -7 15 9 14 -21 81 -48 106 -15 14 -24 30 -21 35 3 6 -1
7 -9 4 -9 -3 -16 -1 -16 6 0 6 -4 9 -9 6 -5 -3 -8 7 -7 23 1 17 -2 28 -6 25
-4 -3 -8 -1 -8 5 0 5 5 13 10 16 6 3 10 16 10 28 0 12 9 28 20 35 21 13 27 32
10 32 -5 0 -10 -7 -10 -15 0 -20 -25 -8 -27 13 -1 9 -2 22 -3 27 -1 6 -1 17 0
25 2 8 5 5 7 -7 2 -13 11 -23 18 -23z m-646 -79 c-2 -6 -10 2 -17 17 -11 25
-11 25 4 10 9 -9 15 -21 13 -27z m-129 -27 c0 -8 -6 -14 -14 -14 -18 0 -29 27
-13 33 16 6 27 -1 27 -19z m150 -31 c0 -19 -13 -9 -16 12 -1 8 2 13 7 9 5 -3
9 -12 9 -21z m227 -284 c-4 -17 -3 -18 9 -8 12 10 13 9 8 -5 -3 -9 -15 -16
-26 -16 -10 0 -17 3 -15 8 2 4 7 15 10 25 9 24 20 21 14 -4z m1054 -39 c-4 -3
-11 -12 -14 -20 -4 -12 -6 -11 -6 3 -1 9 -8 17 -16 17 -8 0 -15 5 -15 10 0 7
6 7 20 0 17 -9 20 -8 20 7 0 15 2 16 10 3 5 -8 5 -17 1 -20z m-494 -179 c-1
-21 -5 -37 -9 -34 -5 2 -8 -3 -8 -12 0 -10 5 -13 12 -9 8 5 9 2 5 -10 -4 -10
-7 -20 -7 -22 0 -3 -6 -2 -12 2 -7 4 -4 -2 6 -14 17 -20 15 -27 -7 -23 -4 1
-3 -8 3 -19 9 -16 8 -19 -6 -13 -12 4 -15 3 -10 -5 4 -8 2 -10 -8 -6 -8 3 -13
13 -11 23 2 9 6 44 10 76 6 48 28 103 42 105 2 0 2 -18 0 -39z m520 -148 c-3
-3 -11 -2 -17 2 -9 6 -9 10 1 16 14 8 27 -7 16 -18z m0 -45 c-3 -8 -6 -5 -6 6
-1 11 2 17 5 13 3 -3 4 -12 1 -19z m-920 -34 c-3 -3 -12 -4 -19 -1 -8 3 -5 6
6 6 11 1 17 -2 13 -5z m-120 -106 c-3 -8 -6 -5 -6 6 -1 11 2 17 5 13 3 -3 4
-12 1 -19z"/>
<path d="M1573 1847 c3 -7 10 -11 17 -9 11 2 11 0 0 -13 -12 -15 -15 -14 -26
7 -10 17 -13 19 -14 6 0 -9 4 -19 10 -23 5 -3 7 -11 4 -18 -3 -8 0 -24 5 -38
9 -23 10 -22 11 11 0 25 3 31 9 21 5 -8 7 -21 3 -30 -6 -17 -4 -16 18 13 10
13 10 17 3 12 -7 -4 -13 -2 -13 3 0 6 6 11 13 11 9 0 9 2 -1 8 -7 5 -10 16 -7
24 4 10 -1 17 -15 21 -14 3 -20 1 -17 -6z"/>
<path d="M1521 1845 c1 -19 18 -51 18 -35 0 8 -4 22 -9 30 -5 8 -9 11 -9 5z"/>
<path d="M1645 1750 c3 -5 8 -10 11 -10 2 0 4 5 4 10 0 6 -5 10 -11 10 -5 0
-7 -4 -4 -10z"/>
<path d="M1498 1743 c7 -3 16 -2 19 1 4 3 -2 6 -13 5 -11 0 -14 -3 -6 -6z"/>
<path d="M1045 1390 c-3 -5 -1 -10 4 -10 6 0 11 5 11 10 0 6 -2 10 -4 10 -3 0
-8 -4 -11 -10z"/>
<path d="M870 1310 c0 -11 2 -20 4 -20 2 0 6 9 9 20 3 11 1 20 -4 20 -5 0 -9
-9 -9 -20z"/>
<path d="M892 1240 c0 -14 2 -19 5 -12 2 6 2 18 0 25 -3 6 -5 1 -5 -13z"/>
<path d="M916 1073 c-6 -14 -5 -15 5 -6 7 7 10 15 7 18 -3 3 -9 -2 -12 -12z"/>
<path d="M1497 1213 c-11 -11 -8 -20 7 -20 8 0 12 6 9 14 -6 15 -7 15 -16 6z"/>
<path d="M2087 1247 c-2 -6 0 -21 5 -32 8 -19 8 -19 4 2 -2 12 1 24 7 26 8 2
8 5 0 10 -6 4 -13 1 -16 -6z"/>
<path d="M2181 934 c0 -11 3 -14 6 -6 3 7 2 16 -1 19 -3 4 -6 -2 -5 -13z"/>
<path d="M2247 823 c-4 -3 -7 -11 -7 -17 0 -6 5 -5 12 2 6 6 9 14 7 17 -3 3
-9 2 -12 -2z"/>
<path d="M2195 570 c3 -5 8 -10 11 -10 2 0 4 5 4 10 0 6 -5 10 -11 10 -5 0 -7
-4 -4 -10z"/>
<path d="M910 500 c0 -5 5 -10 10 -10 6 0 10 5 10 10 0 6 -4 10 -10 10 -5 0
-10 -4 -10 -10z"/>
<path d="M1140 120 c0 -11 -5 -20 -12 -20 -17 0 -4 -10 20 -15 19 -3 20 -1 10
26 -12 34 -18 37 -18 9z"/>
<path d="M1087 93 c-12 -11 -8 -19 12 -20 14 -1 18 3 14 13 -6 15 -16 18 -26
7z"/>
<path d="M1168 68 c-29 -35 -20 -51 13 -25 9 7 13 19 10 29 -5 15 -8 15 -23
-4z"/>
</g>
</svg>
